<?xml version="1.0" standalone="no"?>
<!DOCTYPE svg PUBLIC "-//W3C//DTD SVG 20010904//EN"
 "http://www.w3.org/TR/2001/REC-SVG-20010904/DTD/svg10.dtd">
<svg version="1.0" xmlns="http://www.w3.org/2000/svg"
 width="512.000000pt" height="512.000000pt" viewBox="0 0 512.000000 512.000000"
 preserveAspectRatio="xMidYMid meet">

<g transform="translate(0.000000,512.000000) scale(0.100000,-0.100000)"
fill="#000000" stroke="none">
<path d="M4340 4774 c-475 -57 -916 -194 -1268 -394 l-112 -63 0 -169 0 -170
-29 -29 c-16 -16 -39 -29 -51 -29 -12 0 -35 13 -51 29 -29 29 -29 31 -29 140
0 61 -3 111 -6 111 -16 0 -210 -165 -318 -270 -413 -401 -683 -873 -780 -1362
-21 -104 -29 -126 -51 -145 -51 -44 -80 -27 -180 107 -37 49 -70 90 -75 90
-11 0 -39 -155 -50 -279 -13 -148 1 -319 41 -475 6 -26 15 -46 19 -44 17 7
200 212 323 363 387 473 705 822 1128 1240 567 560 1075 977 1563 1284 l129
81 -44 -1 c-24 -1 -96 -7 -159 -15z"/>
<path d="M4670 4679 c-229 -133 -575 -374 -835 -583 -559 -448 -1164 -1044
-1736 -1711 -185 -215 -329 -394 -340 -420 -10 -25 -62 -396 -56 -402 8 -7
322 112 481 182 315 138 612 315 856 510 l75 60 -253 5 -254 5 -24 28 c-31 36
-31 71 1 102 l24 25 343 0 343 0 86 88 c92 93 239 260 239 271 0 3 -85 35
-190 69 -198 66 -230 85 -230 136 0 46 26 63 172 111 382 126 713 293 938 473
l60 47 -121 5 c-117 5 -122 6 -145 33 -29 34 -31 67 -5 98 19 23 24 24 222 29
l204 5 36 60 c48 77 111 227 144 341 47 161 100 495 79 494 -5 -1 -56 -28
-114 -61z"/>
<path d="M1190 1354 c-201 -218 -366 -399 -368 -404 -5 -12 68 -152 77 -148 4
2 147 155 318 341 l309 339 18 130 c10 71 16 131 14 133 -2 2 -168 -174 -368
-391z"/>
<path d="M629 738 c-76 -98 -220 -310 -215 -315 2 -2 30 13 62 33 32 20 90 51
130 68 53 23 84 45 121 86 l51 55 -39 77 c-22 43 -41 78 -43 78 -2 0 -32 -37
-67 -82z"/>
</g>
</svg>
