<?xml version="1.0" standalone="no"?>
<!DOCTYPE svg PUBLIC "-//W3C//DTD SVG 20010904//EN"
 "http://www.w3.org/TR/2001/REC-SVG-20010904/DTD/svg10.dtd">
<svg version="1.0" xmlns="http://www.w3.org/2000/svg"
 width="820.000000pt" height="1038.000000pt" viewBox="0 0 820.000000 1038.000000"
 preserveAspectRatio="xMidYMid meet">

<g transform="translate(0.000000,1038.000000) scale(0.100000,-0.100000)"
fill="#000000" stroke="none">
<path d="M3895 9964 c-474 -23 -847 -76 -1234 -174 -1140 -291 -2032 -926
-2379 -1696 -100 -221 -150 -427 -159 -662 -21 -523 182 -1002 613 -1452 l95
-98 -29 -34 c-37 -42 -52 -71 -52 -99 0 -32 43 -100 79 -127 17 -12 31 -28 31
-36 0 -7 -29 -57 -64 -112 -265 -412 -424 -893 -457 -1384 -34 -492 77 -1015
311 -1476 89 -174 171 -305 300 -477 l107 -142 -49 -58 c-107 -129 -202 -375
-363 -948 -54 -189 -108 -364 -120 -389 -29 -58 -101 -155 -170 -230 -101
-110 -95 -112 263 -115 306 -2 331 2 380 48 51 47 72 114 102 317 37 263 57
306 182 401 179 135 393 194 613 169 147 -16 203 -33 385 -120 466 -221 908
-338 1464 -390 60 -5 115 -15 123 -22 11 -9 65 -11 197 -9 156 2 184 0 195
-13 8 -9 29 -16 47 -16 27 0 34 4 34 19 0 11 4 22 9 25 5 4 78 13 163 21 556
56 991 179 1473 415 195 96 244 110 385 110 200 0 378 -62 549 -190 122 -92
145 -142 181 -385 31 -214 55 -279 123 -329 27 -20 45 -21 340 -27 172 -3 318
-4 325 -2 28 11 8 50 -70 133 -131 138 -134 144 -237 560 -150 608 -223 790
-375 944 -47 47 -66 73 -60 81 5 7 51 68 103 136 318 415 519 885 598 1399 25
164 25 607 0 770 -66 424 -209 810 -435 1170 l-72 115 45 45 c24 25 51 62 60
83 13 33 14 41 1 71 -8 19 -33 55 -55 79 -23 24 -41 49 -41 54 0 6 21 28 47
49 74 60 231 221 302 309 286 355 420 765 382 1172 -22 239 -77 433 -185 658
-279 576 -867 1086 -1641 1423 -629 275 -1321 420 -2070 435 -121 2 -251 3
-290 1z m598 -359 c676 -55 1253 -207 1797 -476 611 -300 1056 -700 1280
-1147 122 -244 167 -448 157 -711 -6 -179 -34 -296 -105 -446 -84 -175 -182
-305 -358 -475 -148 -142 -177 -164 -203 -151 -44 24 -114 7 -155 -38 -11 -12
-27 -21 -36 -21 -16 0 -16 5 1 75 9 41 20 103 24 139 7 64 8 64 59 100 139 95
218 211 224 328 4 58 0 76 -25 131 -60 127 -176 224 -397 332 -424 207 -1023
337 -1896 411 -254 21 -972 30 -1260 15 -771 -40 -1428 -151 -1910 -322 -403
-143 -644 -334 -667 -528 -12 -103 56 -231 173 -325 33 -26 66 -53 76 -61 13
-11 15 -21 7 -52 -5 -21 -9 -71 -9 -111 l0 -73 -50 7 c-40 5 -56 3 -86 -15
l-37 -22 -70 68 c-102 100 -220 244 -299 363 -229 345 -300 662 -228 1031 198
1027 1533 1853 3195 1978 188 14 601 12 798 -4z"/>
</g>
</svg>
