<?xml version="1.0" standalone="no"?>
<!DOCTYPE svg PUBLIC "-//W3C//DTD SVG 20010904//EN"
 "http://www.w3.org/TR/2001/REC-SVG-20010904/DTD/svg10.dtd">
<svg version="1.0" xmlns="http://www.w3.org/2000/svg"
 width="960.000000pt" height="687.000000pt" viewBox="0 0 960.000000 687.000000"
 preserveAspectRatio="xMidYMid meet">

<g transform="translate(0.000000,687.000000) scale(0.100000,-0.100000)"
fill="#000000" stroke="none">
<path d="M1841 6829 c-239 -119 -426 -319 -541 -576 -34 -75 -55 -110 -73
-119 -26 -14 -47 -59 -47 -100 0 -16 -13 -32 -42 -53 -50 -34 -204 -190 -239
-241 -13 -19 -70 -86 -126 -148 -114 -126 -114 -127 -92 -246 13 -71 -3 -155
-61 -316 -65 -183 -129 -289 -237 -392 -77 -73 -139 -112 -222 -139 -95 -31
-138 -55 -147 -81 -14 -42 -11 -280 4 -333 31 -111 95 -210 154 -241 18 -9 28
-23 28 -38 0 -27 41 -91 103 -161 48 -53 69 -56 43 -6 -15 29 -22 81 -11 81 3
0 18 -9 33 -20 46 -34 123 -47 207 -37 66 8 78 7 102 -9 46 -31 103 -57 110
-50 3 3 -2 24 -12 46 l-18 40 39 38 c21 20 56 58 76 83 26 33 87 78 210 156
211 134 297 181 500 272 l157 71 96 0 c121 0 211 20 311 71 43 21 84 39 91 39
17 0 29 -27 38 -85 3 -28 20 -70 36 -96 l29 -46 -50 -106 c-57 -119 -80 -208
-80 -316 0 -60 -4 -79 -19 -95 -24 -26 -77 -133 -124 -252 -41 -101 -53 -170
-63 -355 -6 -113 -5 -129 14 -172 17 -38 19 -53 10 -84 -14 -50 -6 -92 54
-273 90 -274 144 -379 203 -394 16 -4 27 -18 35 -43 37 -115 121 -233 214
-302 46 -34 53 -45 70 -105 24 -86 17 -155 -24 -245 -36 -78 -76 -122 -135
-148 -35 -16 -73 -18 -320 -18 -268 0 -281 -1 -310 -21 -16 -12 -42 -29 -57
-38 -16 -9 -28 -22 -28 -30 0 -7 -27 -30 -60 -50 -33 -20 -72 -53 -87 -73 -24
-32 -25 -36 -10 -45 25 -13 21 -26 -18 -69 -30 -34 -44 -59 -31 -59 2 0 20 7
40 15 22 10 36 11 36 5 0 -6 -16 -47 -36 -91 -21 -43 -34 -82 -30 -86 3 -3 29
4 56 17 47 22 54 23 101 11 55 -14 67 -12 189 31 81 29 216 33 427 14 239 -23
275 -34 110 -35 -165 -1 -396 -47 -438 -87 -23 -22 -32 -24 -78 -18 -55 7 -48
9 -239 -83 -29 -14 -62 -39 -73 -54 l-20 -29 20 0 c25 0 27 -13 5 -30 -8 -8
-20 -22 -25 -33 -10 -17 -8 -18 23 -12 32 7 32 7 17 -11 -9 -11 -24 -43 -34
-72 -22 -69 -10 -85 37 -49 43 32 98 60 98 49 0 -4 -14 -18 -30 -31 -30 -21
-79 -105 -69 -116 3 -3 30 2 60 9 44 12 181 20 259 16 8 -1 33 2 55 5 22 3 83
10 135 15 52 5 118 14 145 21 34 8 161 13 405 13 329 1 358 2 394 20 41 21 79
68 225 281 58 84 125 163 222 261 120 121 139 145 139 172 0 18 3 32 7 32 4 0
43 -18 88 -39 115 -57 206 -86 415 -134 l185 -42 18 -38 c33 -67 23 -78 -119
-132 -70 -26 -152 -62 -183 -80 -31 -19 -90 -43 -131 -55 -91 -27 -117 -40
-154 -77 -54 -53 -67 -100 -67 -241 0 -70 -2 -146 -5 -170 -7 -50 4 -54 48
-16 17 14 37 23 45 20 7 -3 22 0 33 6 15 10 22 9 37 -4 43 -38 124 -31 193 17
29 20 62 30 136 40 55 8 176 32 269 54 94 22 244 54 335 71 91 17 212 40 270
51 145 27 502 144 540 176 39 33 51 54 70 133 l17 65 69 -2 c38 -2 115 -9 172
-18 421 -62 1063 -67 1452 -10 97 14 186 47 422 158 149 69 231 129 378 277
114 114 148 155 216 265 184 295 208 349 291 675 l35 135 -6 175 c-8 239 -19
328 -56 456 -76 263 -115 366 -230 604 -116 240 -177 401 -231 610 -29 114
-27 234 6 412 26 144 65 248 165 449 54 107 106 162 221 231 93 56 106 53 204
-44 72 -73 85 -92 112 -164 17 -44 41 -116 53 -160 23 -85 38 -105 73 -97 30
7 121 96 166 163 58 85 148 244 182 323 17 40 70 153 117 252 85 176 87 181
87 255 0 133 -37 169 -212 201 -59 11 -170 32 -246 46 -127 23 -154 25 -315
20 -102 -3 -206 -12 -246 -21 -116 -26 -266 -106 -266 -142 0 -8 31 -45 69
-82 84 -82 99 -122 76 -198 -22 -73 -63 -115 -193 -195 -292 -180 -386 -264
-513 -457 -184 -278 -231 -440 -230 -787 0 -272 51 -518 168 -814 36 -91 79
-218 96 -281 26 -101 30 -132 30 -255 1 -206 -33 -365 -110 -520 -95 -188
-194 -275 -374 -325 -192 -53 -256 6 -219 201 6 29 7 56 3 60 -5 4 -39 -8 -77
-27 -93 -46 -136 -46 -182 0 -51 51 -46 102 26 247 40 82 75 118 183 186 48
31 87 60 87 64 0 12 -37 11 -80 -1 -67 -19 -235 -43 -316 -44 -77 -1 -84 1
-120 30 -26 20 -55 61 -86 123 -45 86 -48 97 -48 169 0 179 29 253 142 364 43
42 78 79 78 82 0 9 -55 7 -131 -5 -56 -10 -97 -9 -223 5 -166 18 -300 46 -319
66 -16 16 66 91 188 171 174 116 248 140 440 144 102 3 129 6 127 17 -2 7 -21
42 -42 78 -102 172 -116 371 -36 516 28 50 42 64 91 89 l59 30 198 0 c172 0
198 2 198 15 0 9 -15 47 -33 85 -92 192 -113 294 -97 465 18 185 61 261 261
455 98 95 141 129 204 162 136 70 273 103 510 124 72 6 134 15 140 20 21 21
-220 233 -460 405 -323 230 -580 343 -948 418 -358 72 -559 73 -1117 6 -194
-24 -269 -36 -570 -95 -124 -24 -314 -58 -422 -75 -376 -58 -683 -118 -717
-139 -21 -13 -8 -26 76 -71 92 -49 193 -128 213 -165 19 -36 13 -40 -153 -106
-187 -74 -386 -176 -417 -214 -9 -10 7 -27 72 -76 46 -34 85 -64 87 -66 26
-20 -123 -10 -379 28 -187 27 -231 41 -269 84 -38 44 -44 68 -39 149 7 121 76
179 297 252 107 35 121 42 96 48 -46 9 -224 24 -536 46 -333 23 -382 31 -422
72 -26 25 -29 35 -25 71 3 24 13 61 24 82 29 64 139 165 247 229 53 32 97 61
97 63 0 8 -58 -7 -480 -127 -474 -135 -568 -160 -605 -160 -22 0 -24 3 -15 19
18 34 145 151 229 211 44 32 128 86 186 121 88 54 101 65 80 67 -38 5 -215
-43 -329 -89 -307 -123 -519 -336 -504 -507 3 -32 0 -37 -19 -40 -18 -3 -24 4
-34 39 -24 79 26 253 111 382 63 97 141 174 247 245 133 88 124 111 -16 41z
m2129 -1436 c74 -117 120 -232 141 -351 12 -71 16 -119 10 -125 -6 -6 -57 2
-133 21 -67 17 -141 34 -163 37 -86 14 -145 77 -145 157 0 66 65 195 121 240
52 42 97 67 121 68 11 0 31 -20 48 -47z m214 -685 c16 -79 14 -190 -4 -293
-11 -60 -25 -114 -30 -119 -7 -7 -25 -3 -54 13 -64 33 -88 63 -94 116 -4 39 1
57 34 120 40 78 117 185 134 185 5 0 12 -10 14 -22z"/>
</g>
</svg>
