<?xml version="1.0" standalone="no"?>
<!DOCTYPE svg PUBLIC "-//W3C//DTD SVG 20010904//EN"
 "http://www.w3.org/TR/2001/REC-SVG-20010904/DTD/svg10.dtd">
<svg version="1.0" xmlns="http://www.w3.org/2000/svg"
 width="240.000000pt" height="210.000000pt" viewBox="0 0 240.000000 210.000000"
 preserveAspectRatio="xMidYMid meet">

<g transform="translate(0.000000,210.000000) scale(0.100000,-0.100000)"
fill="#000000" stroke="none">
<path d="M1140 2015 c-8 -2 -36 -7 -63 -10 -26 -3 -45 -10 -42 -15 3 -5 -4 -7
-15 -5 -20 4 -43 -13 -59 -43 -8 -17 -7 -46 5 -119 7 -46 6 -45 132 -59 70 -7
89 -21 40 -28 -52 -7 -107 -5 -114 5 -3 5 -14 9 -26 9 l-20 0 20 -32 c25 -38
40 -43 160 -53 103 -8 195 1 189 18 -2 7 6 19 17 29 21 17 21 17 -9 19 -16 1
-39 3 -50 4 -11 1 -45 3 -75 5 -34 2 -43 4 -25 7 124 15 198 27 188 30 -7 3
-13 9 -13 14 0 6 5 7 11 3 8 -5 10 0 6 17 -5 19 1 32 20 53 l27 29 -28 -7
c-18 -4 -25 -3 -21 4 3 5 12 10 19 10 7 0 20 8 29 18 16 17 15 20 -4 40 -11
13 -24 20 -30 17 -5 -4 -9 -1 -9 6 0 7 -10 9 -25 7 -13 -3 -22 -2 -20 2 9 14
-175 35 -215 25z m-73 -321 c-3 -3 -12 -4 -19 -1 -8 3 -5 6 6 6 11 1 17 -2 13
-5z m93 -6 c0 -4 -16 -8 -35 -8 -19 0 -35 4 -35 10 0 5 16 9 35 8 19 -1 35 -5
35 -10z"/>
<path d="M1452 1880 c0 -14 2 -19 5 -12 2 6 2 18 0 25 -3 6 -5 1 -5 -13z"/>
<path d="M907 1536 c-4 -9 10 -24 35 -41 49 -32 43 -46 -7 -16 l-36 21 -10
-27 c-14 -37 -6 -61 38 -112 l37 -44 -37 -29 c-20 -17 -34 -35 -30 -41 3 -5 2
-7 -4 -4 -13 8 -126 -107 -116 -118 5 -4 3 -5 -4 -2 -6 4 -26 -14 -49 -45 -29
-41 -38 -64 -41 -102 -2 -27 -1 -47 2 -44 3 2 6 17 7 32 2 17 7 25 15 21 10
-3 11 0 3 15 -15 29 -12 32 11 9 11 -11 19 -28 16 -38 -2 -9 2 -22 9 -29 7 -7
11 -19 7 -27 -3 -10 0 -15 8 -13 18 4 22 -23 8 -58 -7 -16 -11 -35 -10 -43 2
-9 -3 -12 -13 -8 -14 5 -15 3 -6 -13 8 -16 21 -20 59 -20 56 0 105 -29 85 -50
-9 -9 -9 -22 -2 -48 20 -72 -6 -158 -52 -175 -13 -5 -12 -6 1 -6 28 -2 42 -27
29 -50 -14 -26 -35 -27 -53 -1 -12 17 -16 18 -41 5 -16 -8 -35 -15 -42 -15
-12 0 -12 -4 -3 -22 9 -17 2 -14 -26 12 -52 49 -115 185 -126 268 -17 144 -37
223 -40 161 -1 -21 -2 -20 -8 6 -7 27 -8 24 -16 -28 -8 -66 -1 -169 19 -243
26 -97 67 -166 151 -249 130 -130 256 -181 475 -192 246 -12 429 54 594 215
43 42 76 86 102 139 34 67 39 84 37 140 0 35 -6 69 -11 76 -5 7 -13 31 -17 54
-10 62 -27 45 -53 -55 -30 -112 -71 -196 -122 -250 -48 -50 -56 -53 -35 -11
16 29 15 30 -2 25 -10 -3 -25 -1 -33 4 -13 9 -13 11 0 20 13 8 13 10 -2 10
-10 0 -20 10 -24 25 -3 14 -10 25 -15 25 -5 0 -6 6 -3 14 3 7 -2 16 -10 19 -9
4 -16 15 -16 26 0 10 -6 21 -14 24 -7 3 -16 18 -19 34 -19 97 -42 141 -87 165
-25 12 -104 19 -255 21 l-80 1 3 72 4 72 171 4 c111 2 179 8 192 15 l20 12
-20 1 c-17 0 -17 2 -5 10 10 6 11 10 3 10 -7 0 -13 6 -13 13 0 33 -140 77
-246 77 l-82 0 -13 32 c-7 18 -12 43 -11 55 1 13 -1 22 -6 20 -4 -3 -14 2 -21
11 -13 14 -12 15 10 8 13 -5 54 -10 90 -13 58 -4 75 -1 143 27 123 51 189 110
203 180 l6 35 -25 -17 c-27 -18 -137 -53 -144 -46 -2 3 22 13 53 22 61 20 102
44 103 62 0 6 -26 -2 -57 -17 -122 -59 -296 -77 -393 -40 -28 11 -71 36 -95
55 -32 27 -44 32 -48 22z m106 -112 c67 -18 282 -28 337 -16 24 6 46 9 48 8 8
-9 -130 -54 -150 -49 -15 3 -19 2 -10 -4 7 -6 -15 -9 -60 -9 -40 -1 -75 2 -78
5 -3 3 -30 15 -61 25 -31 10 -70 30 -85 43 -21 18 -24 23 -9 17 11 -4 42 -13
68 -20z m170 -1 c-7 -2 -19 -2 -25 0 -7 3 -2 5 12 5 14 0 19 -2 13 -5z m-191
-51 c109 -52 273 -50 395 3 69 31 59 16 -19 -30 -76 -45 -154 -75 -193 -75
-44 0 -107 19 -130 40 -11 10 -29 21 -41 24 -11 3 -34 20 -50 37 -16 18 -24
30 -19 27 6 -2 31 -14 57 -26z m-138 -177 c-4 -9 -16 -21 -28 -27 -19 -10 -19
-9 3 16 28 30 33 32 25 11z m-94 -121 c0 -8 -19 -13 -24 -6 -3 5 1 9 9 9 8 0
15 -2 15 -3z m25 -684 c3 -5 1 -10 -4 -10 -6 0 -11 5 -11 10 0 6 2 10 4 10 3
0 8 -4 11 -10z"/>
<path d="M1195 1200 c3 -6 20 -10 37 -10 38 0 34 5 -10 13 -21 4 -31 3 -27 -3z"/>
<path d="M1238 83 c6 -2 18 -2 25 0 6 3 1 5 -13 5 -14 0 -19 -2 -12 -5z"/>
</g>
</svg>
